PathFileType	4	(X/Y/Z)	D:\Share\Shared_Data\Ergonomics\Sit To Stand Pertubation\S1\Perturbed_NoHarness.trc
DataRate	CameraRate	NumFrames	NumMarkers	Units	OrigDataRate	OrigDataStartFrame	OrigNumFrames	
100	100	14	18	m	100	5305	231
Frame#	Time	L_ASIS			R_ASIS			R_Pelvis			V_Sacral			L_Pelvis			Clavical			R_Acromium			L_Acromium			Sternum			Torso			R_Thigh_Med			R_Thigh_Lat			R_Thigh			R_Shank_Med			R_Shank_Lat			R_Shank			R_Heel			R_Toe			
		X1	Y1	Z1	X2	Y2	Z2	X3	Y3	Z3	X4	Y4	Z4	X5	Y5	Z5	X6	Y6	Z6	X7	Y7	Z7	X8	Y8	Z8	X9	Y9	Z9	X10	Y10	Z10	X11	Y11	Z11	X12	Y12	Z12	X13	Y13	Z13	X14	Y14	Z14	X15	Y15	Z15	X16	Y16	Z16	X17	Y17	Z17	X18	Y18	Z18	

5305	53.04	0.36209753	0.87648285	-0.092654579	0.34496466	0.86857251	0.10687653	0.26780688	0.88029205	0.14430449	0.16539378	0.86900171	0.00083605278	0.27342163	0.88383545	-0.14340439	0.42347607	1.210204	-1.4238868e-05	0.37546713	1.2933717	0.14722826	0.32051062	1.2561906	-0.19424736	0.41134317	1.2268844	0.10239614	0.41775482	1.2186184	-0.056567905	0.37589407	0.41123721	0.035181076	0.40161417	0.43488528	0.15400682	0.41193842	0.6176817	0.10173618	0.3359368	0.094484688	0.098190254	0.31556583	0.099724091	0.17901364	0.35978613	0.30593579	0.18473624	0.26358401	0.033102661	0.12888994	0.46839008	0.047561745	0.1444202
5306	53.05	0.36629889	0.88065607	-0.093005409	0.34952808	0.87260858	0.10647697	0.27227545	0.88427515	0.14462143	0.17041408	0.87295288	0.00058049428	0.2779155	0.88774298	-0.14388155	0.42304303	1.2158583	-0.00011319656	0.37415344	1.2982302	0.1473515	0.31900446	1.2605841	-0.1943821	0.4108772	1.2322469	0.10241439	0.41720105	1.2240909	-0.056841248	0.37291699	0.41204211	0.035893269	0.39909406	0.43566898	0.15490373	0.41295306	0.61803912	0.10181062	0.33559259	0.094845825	0.09843486	0.31527518	0.099745239	0.17924936	0.35786908	0.30633551	0.18551875	0.26354395	0.033054722	0.12883946	0.46839243	0.047538982	0.14445102
5307	53.06	0.37042523	0.88448389	-0.093342949	0.35400674	0.87631305	0.1060892	0.27663138	0.88800043	0.14497083	0.17532381	0.87660278	0.0002789183	0.28235135	0.89131714	-0.14431674	0.42266287	1.2210802	-0.00020387083	0.37290393	1.302677	0.14746996	0.31759833	1.2645916	-0.19450203	0.41045908	1.2371908	0.10242225	0.41669955	1.2291366	-0.057097443	0.36992419	0.41280429	0.036581337	0.39655832	0.43641534	0.15579222	0.41389304	0.61828357	0.10188291	0.33525735	0.095196243	0.098669846	0.31499094	0.099763298	0.17947293	0.35595807	0.30671835	0.18627771	0.26350867	0.032996029	0.12877489	0.46841138	0.047497704	0.14447685
5308	53.07	0.37446887	0.88796411	-0.093670059	0.35838919	0.87968433	0.10571397	0.28087006	0.89144855	0.14533261	0.18010941	0.87994226	-6.5122887e-05	0.28671341	0.89455017	-0.14472218	0.42233557	1.2258625	-0.00028968161	0.37172427	1.3067086	0.14758133	0.31629651	1.2682024	-0.1946064	0.410091	1.2417078	0.10241801	0.41625482	1.2337502	-0.057339355	0.36694254	0.41351495	0.037258415	0.39402542	0.43711832	0.15666827	0.41477905	0.61842328	0.10195872	0.33493393	0.095532959	0.098892204	0.3147153	0.099777077	0.1796814	0.35406573	0.3070813	0.18700827	0.26347958	0.032928627	0.12869815	0.46844678	0.047438938	0.14449773
5309	53.08	0.3784227	0.89109863	-0.093990028	0.36266406	0.88272443	0.10535107	0.28498788	0.89460229	0.14568471	0.18475848	0.88296576	-0.00044685066	0.29098651	0.89743933	-0.14510944	0.42206036	1.2302023	-0.00037426877	0.37061963	1.3103256	0.14768341	0.31510239	1.2714121	-0.19469518	0.40977487	1.2457947	0.10239953	0.41587112	1.2379309	-0.057570694	0.36400107	0.41416678	0.037942638	0.39151288	0.43777307	0.15752864	0.41563046	0.61846631	0.10204568	0.33462469	0.095853569	0.099099228	0.3144501	0.099785431	0.17987233	0.35220432	0.30742166	0.18770668	0.2634577	0.032855202	0.12861206	0.46849774	0.047364288	0.14451376
5310	53.09	0.38228006	0.89389301	-0.094306335	0.36682019	0.88543854	0.1049995	0.28898279	0.89744824	0.14600436	0.18926003	0.88567181	-0.00086056501	0.29515622	0.899987	-0.14548842	0.42183627	1.2341019	-0.00046130517	0.36959412	1.3135341	0.14777409	0.31401862	1.2742227	-0.1947692	0.40951187	1.2494531	0.10236443	0.41555234	1.2416818	-0.057795753	0.36113031	0.41475394	0.03865601	0.38903683	0.43837634	0.15837096	0.41646466	0.6184201	0.10215283	0.3343309	0.096156303	0.099288834	0.31419705	0.099787315	0.18004405	0.35038492	0.30773712	0.18837057	0.26344357	0.032778866	0.12851988	0.46856271	0.047275997	0.14452519
5311	53.1	0.38603445	0.89635681	-0.094622566	0.37084756	0.88783594	0.10465752	0.29285345	0.89997742	0.1462695	0.19360489	0.88806378	-0.0012999315	0.29920938	0.90220044	-0.14586656	0.42166211	1.2375685	-0.00055433118	0.36865106	1.3163445	0.14785121	0.31304721	1.2766428	-0.19483043	0.40930264	1.2526903	0.10231025	0.41530188	1.2450117	-0.058019028	0.35836047	0.4152728	0.039422585	0.38661194	0.43892606	0.15919424	0.4172966	0.61829163	0.10229005	0.33405298	0.096440178	0.099459831	0.31395749	0.099781837	0.18019577	0.34861746	0.30802594	0.18899933	0.26343713	0.032702858	0.12842523	0.4686394	0.04717688	0.14453235
5312	53.11	0.38968015	0.89850323	-0.094942215	0.37473779	0.8899292	0.10432307	0.2965997	0.90218689	0.14645992	0.19778612	0.89015002	-0.0017582393	0.30313467	0.90409222	-0.14624861	0.42153683	1.2406156	-0.00065661615	0.36779233	1.3187729	0.14791264	0.31218973	1.2786879	-0.19488202	0.40914728	1.2555192	0.10223453	0.41512247	1.2479337	-0.058244949	0.35571988	0.41572186	0.040265873	0.38425073	0.43942191	0.15999883	0.41813818	0.61808698	0.10246709	0.3337905	0.096704956	0.099612061	0.31373196	0.099768425	0.18032777	0.34691006	0.30828683	0.18959406	0.26343781	0.032630241	0.12833177	0.46872491	0.047070206	0.14453575
5313	53.12	0.39321182	0.90034863	-0.095268394	0.37848477	0.89173468	0.10399384	0.30022208	0.90407947	0.1465583	0.20179919	0.89194373	-0.0022286267	0.30692264	0.90567963	-0.14663678	0.4214595	1.2432616	-0.0007710523	0.36701871	1.3208387	0.14795616	0.31144727	1.280379	-0.19492816	0.40904498	1.2579575	0.10213512	0.41501611	1.2504664	-0.058477585	0.35323285	0.41610211	0.041205967	0.38196344	0.43986475	0.16078648	0.41899777	0.61781238	0.10269253	0.33354239	0.09695118	0.099746475	0.31352072	0.099746796	0.18044142	0.34526877	0.30851932	0.19015779	0.26344473	0.032563644	0.12824286	0.46881601	0.046959629	0.14453598
5314	53.13	0.39662503	0.90191199	-0.095603775	0.38208481	0.89327173	0.10366757	0.30372183	0.90566467	0.14655086	0.20564221	0.89346313	-0.0027042828	0.31056592	0.90698383	-0.14703137	0.4214296	1.2455294	-0.00090008074	0.3663295	1.3225658	0.14797966	0.31082019	1.2817429	-0.19497398	0.40899454	1.2600283	0.10201031	0.41498376	1.2526329	-0.058720387	0.35091751	0.41641714	0.042256603	0.37975778	0.44025687	0.16156047	0.4198801	0.61747375	0.10297285	0.33330695	0.097180115	0.099865128	0.31332315	0.099717072	0.18053918	0.34369745	0.30872324	0.19069513	0.26345642	0.032505089	0.12816141	0.46890912	0.046848961	0.14453384
5315	53.14	0.39991647	0.90321478	-0.095950294	0.38553702	0.89456256	0.1033422	0.3071008	0.90695813	0.14642776	0.20931592	0.89473016	-0.0031786277	0.31405954	0.90802985	-0.14743123	0.42144693	1.2474469	-0.0010456487	0.36572305	1.3239807	0.147981	0.31030841	1.2828098	-0.19502515	0.40899408	1.261759	0.10185899	0.41502542	1.2544602	-0.058976067	0.34878445	0.41667316	0.043422787	0.37763885	0.44060156	0.1623252	0.42078604	0.61707739	0.10331177	0.33308224	0.097393661	0.099970993	0.31313797	0.099679817	0.18062433	0.34219772	0.30889948	0.19121211	0.2634715	0.03245586	0.12808958	0.46900052	0.046741974	0.14453026
5316	53.15	0.40308405	0.90427991	-0.096309074	0.38884314	0.89563086	0.10301601	0.3103613	0.90798077	0.14618323	0.21282372	0.89577032	-0.0036454844	0.31740073	0.90884497	-0.14783482	0.42151138	1.2490453	-0.0012091973	0.36519681	1.3251127	0.14795822	0.30991077	1.2836133	-0.19508752	0.40904147	1.2631803	0.10168073	0.41513986	1.2559789	-0.059246468	0.34683557	0.4168783	0.044699425	0.37560886	0.44090305	0.16308578	0.42171289	0.61662976	0.10370985	0.33286627	0.097594177	0.10006768	0.3129635	0.099635971	0.18070071	0.34076865	0.30904926	0.19171559	0.26348825	0.032416542	0.12802879	0.46908676	0.046642159	0.14452623
5317	53.16	0.40612714	0.90513159	-0.096680183	0.39200754	0.89650159	0.10268774	0.31350565	0.90875824	0.14581549	0.21617148	0.89661151	-0.0040992389	0.32058896	0.90945825	-0.14824081	0.42162296	1.2503579	-0.0013916717	0.3647475	1.3259927	0.14790953	0.30962531	1.284188	-0.19516682	0.40913422	1.2643251	0.10147579	0.41532455	1.2572212	-0.059532612	0.34506454	0.41704263	0.046071243	0.3736676	0.44116614	0.16384779	0.42265466	0.616138	0.10416476	0.33265707	0.09778437	0.10015916	0.31279739	0.099586884	0.18077254	0.33940726	0.30917447	0.19221274	0.26350534	0.032387062	0.12797968	0.46916473	0.046552494	0.14452277
5318	53.17	0.40904691	0.90579462	-0.097062668	0.39503662	0.89719989	0.10235669	0.31653638	0.90931891	0.145327	0.2193671	0.89728265	-0.0045349908	0.32362592	0.90989954	-0.1486489	0.42178168	1.2514199	-0.0015935538	0.36437143	1.3266523	0.14783348	0.30944879	1.2845691	-0.1952683	0.40926971	1.2652278	0.10124516	0.41557584	1.2582216	-0.059834724	0.34345731	0.41717737	0.047514153	0.37181244	0.44139609	0.16461641	0.42360269	0.6156095	0.10467189	0.33245285	0.097967026	0.1002494	0.31263712	0.099534187	0.18084393	0.33810873	0.30927771	0.19271037	0.26352158	0.032366848	0.12794209	0.46923187	0.04647525	0.14452086
